<?xml version="1.0" standalone="no"?>
<!DOCTYPE svg PUBLIC "-//W3C//DTD SVG 20010904//EN"
 "http://www.w3.org/TR/2001/REC-SVG-20010904/DTD/svg10.dtd">
<svg version="1.0" xmlns="http://www.w3.org/2000/svg"
 width="80.000000pt" height="80.000000pt" viewBox="0 0 80.000000 80.000000"
 preserveAspectRatio="xMidYMid meet">

<g transform="translate(0.000000,80.000000) scale(0.100000,-0.100000)"
fill="#000000" stroke="none">
<path d="M112 678 c-18 -18 -15 -35 8 -51 11 -8 63 -63 115 -123 l95 -109 0
-152 c0 -84 2 -153 5 -153 3 0 34 12 70 26 l65 26 0 125 0 125 32 40 31 40 24
-31 c17 -21 33 -31 52 -31 34 0 71 37 71 71 0 25 -31 62 -59 71 -9 2 3 20 35
52 79 80 77 81 -252 84 -209 2 -283 -1 -292 -10z m568 -22 c0 -8 -6 -16 -14
-18 -8 -2 -60 -55 -115 -118 l-101 -115 0 -125 0 -126 -37 -13 c-21 -8 -44
-16 -50 -18 -10 -4 -13 28 -13 138 l0 144 -101 115 c-55 63 -107 116 -115 118
-8 2 -14 10 -14 18 0 12 44 14 280 14 236 0 280 -2 280 -14z m-36 -142 c20
-20 20 -48 0 -68 -20 -20 -48 -20 -68 0 -9 8 -16 24 -16 34 0 10 7 26 16 34 8
9 24 16 34 16 10 0 26 -7 34 -16z"/>
<path d="M170 630 c0 -5 5 -10 10 -10 6 0 10 5 10 10 0 6 -4 10 -10 10 -5 0
-10 -4 -10 -10z"/>
<path d="M210 630 c0 -5 5 -10 10 -10 6 0 10 5 10 10 0 6 -4 10 -10 10 -5 0
-10 -4 -10 -10z"/>
<path d="M250 630 c0 -5 5 -10 10 -10 6 0 10 5 10 10 0 6 -4 10 -10 10 -5 0
-10 -4 -10 -10z"/>
<path d="M290 630 c0 -5 5 -10 10 -10 6 0 10 5 10 10 0 6 -4 10 -10 10 -5 0
-10 -4 -10 -10z"/>
<path d="M330 630 c0 -5 5 -10 10 -10 6 0 10 5 10 10 0 6 -4 10 -10 10 -5 0
-10 -4 -10 -10z"/>
<path d="M370 630 c0 -5 5 -10 10 -10 6 0 10 5 10 10 0 6 -4 10 -10 10 -5 0
-10 -4 -10 -10z"/>
<path d="M410 630 c0 -5 5 -10 10 -10 6 0 10 5 10 10 0 6 -4 10 -10 10 -5 0
-10 -4 -10 -10z"/>
<path d="M450 630 c0 -5 5 -10 10 -10 6 0 10 5 10 10 0 6 -4 10 -10 10 -5 0
-10 -4 -10 -10z"/>
<path d="M490 630 c0 -5 5 -10 10 -10 6 0 10 5 10 10 0 6 -4 10 -10 10 -5 0
-10 -4 -10 -10z"/>
<path d="M530 630 c0 -5 5 -10 10 -10 6 0 10 5 10 10 0 6 -4 10 -10 10 -5 0
-10 -4 -10 -10z"/>
<path d="M570 630 c0 -5 5 -10 10 -10 6 0 10 5 10 10 0 6 -4 10 -10 10 -5 0
-10 -4 -10 -10z"/>
<path d="M610 630 c0 -5 5 -10 10 -10 6 0 10 5 10 10 0 6 -4 10 -10 10 -5 0
-10 -4 -10 -10z"/>
<path d="M370 400 c0 -5 5 -10 10 -10 6 0 10 5 10 10 0 6 -4 10 -10 10 -5 0
-10 -4 -10 -10z"/>
<path d="M410 400 c0 -5 5 -10 10 -10 6 0 10 5 10 10 0 6 -4 10 -10 10 -5 0
-10 -4 -10 -10z"/>
<path d="M575 306 c-101 -44 -125 -178 -46 -257 65 -65 157 -65 222 0 124 124
-15 327 -176 257z m133 -26 c18 -11 41 -34 52 -52 71 -117 -71 -259 -188 -188
-18 11 -41 34 -52 52 -71 117 71 259 188 188z"/>
<path d="M590 203 c0 -3 7 -15 17 -25 15 -17 15 -19 -2 -38 -24 -26 -11 -39
15 -15 19 17 21 17 40 0 26 -24 39 -11 15 15 -17 19 -17 21 0 40 24 26 11 39
-15 15 -19 -17 -21 -17 -38 -2 -19 18 -32 22 -32 10z"/>
</g>
</svg>
